<?xml version="1.0" encoding="utf-8"?>
<!-- Generator: Adobe Illustrator 16.0.0, SVG Export Plug-In . SVG Version: 6.00 Build 0)  -->
<!DOCTYPE svg PUBLIC "-//W3C//DTD SVG 1.1//EN" "http://www.w3.org/Graphics/SVG/1.1/DTD/svg11.dtd">
<svg version="1.1" id="圖層_1" xmlns:sketch="http://www.bohemiancoding.com/sketch/ns"
	 xmlns="http://www.w3.org/2000/svg" xmlns:xlink="http://www.w3.org/1999/xlink" x="0px" y="0px" width="60px" height="60px"
	 viewBox="0 0 60 60" enable-background="new 0 0 60 60" xml:space="preserve">
<rect fill="#4086CD" width="60" height="60"/>
<title></title>
<g id="flat">
	<g id="app_store">
		<path fill="#4086CD" d="M30,60c16.568,0,30-13.432,30-30S46.568,0,30,0S0,13.432,0,30S13.432,60,30,60z"/>
		<g transform="translate(11.538462, 12.692308)">
			<path id="Rectangle" fill="#FFFFFF" d="M1.154,17.308v4.615h2.079l2.536-4.615H1.154z M11.54,17.308l-2.627,4.615H27.09
				l-2.715-4.615H11.54z M30.001,17.308l2.646,4.615h4.275v-4.615H30.001z"/>
			<path id="Rectangle-76" fill="#FFFFFF" d="M17.364,5.682c0,0,0.289-0.5-0.461-0.932l-1.499-0.865
				c-0.75-0.433-1.038,0.067-1.038,0.067l-0.288,0.5l2.998,1.731L17.364,5.682z M13.501,5.45L1.963,25.436l2.998,1.731L16.499,7.181
				L13.501,5.45z M1.386,26.435l-0.232,3.863l3.229-2.133L1.386,26.435z"/>
			<path id="Rectangle-76_1_" fill="#FFFFFF" d="M17.213,1.732c0,0-0.75,0.433-0.135,1.497c3.681,6.375,10.924,18.921,10.924,18.921
				l2.997-1.73c0,0-10.31-17.858-10.924-18.922c-0.614-1.063-1.363-0.631-1.363-0.631L17.213,1.732z M28.579,23.148l1.153,1.999
				l2.998-1.73l-1.153-1.999L28.579,23.148z M34.146,29.261c1.097-1.452,0.796-3.167,0.308-4.014
				c-0.49-0.848-1.164-0.822-1.164-0.822l-3.144,1.816c0,0-0.058,0.975,0.45,1.477C31.44,28.552,32.947,27.872,34.146,29.261z"/>
		</g>
	</g>
</g>
</svg>
