<?xml version="1.0" encoding="utf-8"?>
<!-- Generator: Adobe Illustrator 16.0.0, SVG Export Plug-In . SVG Version: 6.00 Build 0)  -->
<!DOCTYPE svg PUBLIC "-//W3C//DTD SVG 1.1//EN" "http://www.w3.org/Graphics/SVG/1.1/DTD/svg11.dtd">
<svg version="1.1" id="Layer_1" xmlns="http://www.w3.org/2000/svg" xmlns:xlink="http://www.w3.org/1999/xlink" x="0px" y="0px"
	 width="100px" height="100px" viewBox="206 206 100 100" enable-background="new 206 206 100 100" xml:space="preserve">
<g>
	<rect x="206" y="206" fill="#3A5BA2" width="100" height="100"/>
	<g>
		<path fill="#3A5BA2" d="M256.045,306C283.502,306,306,283.502,306,256.045C306,228.497,283.502,206,256.045,206
			C228.497,206,206,228.497,206,256.045C206,283.502,228.497,306,256.045,306L256.045,306z"/>
		<path fill="#FFFFFF" d="M249.754,237.267c0-6.909,5.581-12.49,12.488-12.49h9.39v12.49h-6.289c-1.682,0-3.101,1.417-3.101,3.1
			v6.288h9.39v12.488h-9.39v28.168h-12.488v-28.168h-9.388v-12.488h9.388V237.267z"/>
	</g>
</g>
</svg>
