<?xml version="1.0" encoding="utf-8"?>
<!-- Generator: Adobe Illustrator 16.0.0, SVG Export Plug-In . SVG Version: 6.00 Build 0)  -->
<!DOCTYPE svg PUBLIC "-//W3C//DTD SVG 1.1//EN" "http://www.w3.org/Graphics/SVG/1.1/DTD/svg11.dtd">
<svg version="1.1" id="Capa_1" xmlns="http://www.w3.org/2000/svg" xmlns:xlink="http://www.w3.org/1999/xlink" x="0px" y="0px"
	 width="97.75px" height="97.75px" viewBox="0 0 97.75 97.75" enable-background="new 0 0 97.75 97.75" xml:space="preserve">
<g>
	<rect fill="#EA7819" width="97.75" height="97.75"/>
	<g>
		<g id="news">
			<path fill="#FFFFFF" d="M73.25,18.875H32c-3.107,0-5.625,2.518-5.625,5.625v3.75H24.5c-3.107,0-5.625,2.518-5.625,5.625v37.5
				c0,4.143,3.358,7.5,7.5,7.5h45c4.142,0,7.5-3.357,7.5-7.5V24.5C78.875,21.393,76.355,18.875,73.25,18.875z M75.125,71.375
				c0,2.066-1.684,3.75-3.75,3.75h-45c-2.068,0-3.75-1.684-3.75-3.75v-37.5c0-1.035,0.84-1.875,1.875-1.875h1.875v37.5
				c0,1.037,0.838,1.875,1.875,1.875s1.875-0.838,1.875-1.875v-45c0-1.035,0.84-1.875,1.875-1.875h41.25
				c1.033,0,1.875,0.84,1.875,1.875V71.375z"/>
			<path fill="#FFFFFF" d="M55.434,43.26h15c0.521,0,0.938-0.42,0.938-0.938s-0.418-0.938-0.938-0.938h-15
				c-0.516,0-0.938,0.42-0.938,0.938S54.918,43.26,55.434,43.26z"/>
			<path fill="#FFFFFF" d="M55.434,37.635h15c0.521,0,0.938-0.42,0.938-0.938s-0.418-0.938-0.938-0.938h-15
				c-0.516,0-0.938,0.42-0.938,0.938S54.918,37.635,55.434,37.635z"/>
			<path fill="#FFFFFF" d="M55.434,32.01h15c0.521,0,0.938-0.42,0.938-0.938s-0.418-0.938-0.938-0.938h-15
				c-0.516,0-0.938,0.42-0.938,0.938S54.918,32.01,55.434,32.01z"/>
			<path fill="#FFFFFF" d="M49.813,69.508h-15c-0.518,0-0.938,0.422-0.938,0.938c0,0.521,0.42,0.938,0.938,0.938h15
				c0.517,0,0.938-0.416,0.938-0.938C50.75,69.93,50.33,69.508,49.813,69.508z"/>
			<path fill="#FFFFFF" d="M49.813,63.883h-15c-0.518,0-0.938,0.422-0.938,0.938c0,0.521,0.42,0.938,0.938,0.938h15
				c0.517,0,0.938-0.416,0.938-0.938C50.75,64.305,50.33,63.883,49.813,63.883z"/>
			<path fill="#FFFFFF" d="M49.813,58.258h-15c-0.518,0-0.938,0.422-0.938,0.938c0,0.521,0.42,0.938,0.938,0.938h15
				c0.517,0,0.938-0.416,0.938-0.938C50.75,58.68,50.33,58.258,49.813,58.258z"/>
			<path fill="#FFFFFF" d="M70.438,69.508h-15c-0.52,0-0.938,0.422-0.938,0.938c0,0.521,0.418,0.938,0.938,0.938h15
				c0.517,0,0.938-0.416,0.938-0.938C71.375,69.93,70.953,69.508,70.438,69.508z"/>
			<path fill="#FFFFFF" d="M70.438,63.883h-15c-0.52,0-0.938,0.422-0.938,0.938c0,0.521,0.418,0.938,0.938,0.938h15
				c0.517,0,0.938-0.416,0.938-0.938C71.375,64.305,70.953,63.883,70.438,63.883z"/>
			<path fill="#FFFFFF" d="M70.438,58.258h-15c-0.52,0-0.938,0.422-0.938,0.938c0,0.521,0.418,0.938,0.938,0.938h15
				c0.517,0,0.938-0.416,0.938-0.938C71.375,58.68,70.953,58.258,70.438,58.258z"/>
			<path fill="#FFFFFF" d="M70.438,47.008H34.813c-0.518,0-0.938,0.42-0.938,0.938c0,0.52,0.42,0.939,0.938,0.939h35.625
				c0.517,0,0.938-0.42,0.938-0.939C71.376,47.428,70.953,47.008,70.438,47.008z"/>
			<path fill="#FFFFFF" d="M70.438,52.633H34.813c-0.518,0-0.938,0.422-0.938,0.938c0,0.521,0.42,0.938,0.938,0.938h35.625
				c0.517,0,0.938-0.416,0.938-0.938C71.375,53.055,70.953,52.633,70.438,52.633z"/>
			<path fill="#FFFFFF" d="M35.75,43.25h13.125c1.037,0,1.875-0.838,1.875-1.875V28.258c0-1.037-0.838-1.875-1.875-1.875H35.75
				c-1.037,0-1.875,0.838-1.875,1.875v13.117C33.875,42.41,34.713,43.25,35.75,43.25z M37.625,30.125H47V39.5h-9.375V30.125z"/>
		</g>
	</g>
</g>
</svg>
