<?xml version="1.0" encoding="utf-8"?>
<!-- Generator: Adobe Illustrator 16.0.0, SVG Export Plug-In . SVG Version: 6.00 Build 0)  -->
<!DOCTYPE svg PUBLIC "-//W3C//DTD SVG 1.1//EN" "http://www.w3.org/Graphics/SVG/1.1/DTD/svg11.dtd">
<svg version="1.1" id="圖層_1" xmlns="http://www.w3.org/2000/svg" xmlns:xlink="http://www.w3.org/1999/xlink" x="0px" y="0px"
	 width="42px" height="42px" viewBox="0 0 42 42" enable-background="new 0 0 42 42" xml:space="preserve">
<path d="M21,41.875C9.489,41.875,0.125,32.511,0.125,21S9.489,0.125,21,0.125c11.512,0,20.875,9.364,20.875,20.875
	S32.512,41.875,21,41.875z"/>
<g>
	<path fill="#FFFFFF" d="M6.678,15.273h3.804c0.857,0,1.512,0.073,1.962,0.219c0.604,0.198,1.122,0.55,1.554,1.055
		c0.431,0.506,0.759,1.124,0.984,1.855c0.225,0.732,0.337,1.635,0.337,2.707c0,0.943-0.105,1.756-0.316,2.438
		c-0.258,0.834-0.625,1.508-1.104,2.023c-0.361,0.391-0.849,0.695-1.463,0.914c-0.459,0.162-1.073,0.242-1.842,0.242H6.678V15.273z
		 M8.759,17.211v7.586h1.554c0.581,0,1.001-0.035,1.259-0.109c0.337-0.094,0.617-0.252,0.84-0.477
		c0.223-0.223,0.404-0.592,0.545-1.105c0.141-0.512,0.211-1.211,0.211-2.098c0-0.885-0.07-1.564-0.211-2.039
		c-0.141-0.474-0.337-0.844-0.591-1.109c-0.253-0.266-0.574-0.445-0.963-0.539c-0.291-0.072-0.86-0.109-1.709-0.109L8.759,17.211
		L8.759,17.211z"/>
	<path fill="#FFFFFF" d="M19.714,26.727l-3.685-11.453h2.257l2.608,8.477l2.523-8.477h2.209l-3.69,11.453H19.714z"/>
	<path fill="#FFFFFF" d="M26.682,15.273h3.803c0.857,0,1.513,0.073,1.964,0.219c0.604,0.198,1.12,0.55,1.553,1.055
		c0.433,0.506,0.761,1.124,0.983,1.855c0.226,0.732,0.339,1.635,0.339,2.707c0,0.943-0.105,1.756-0.316,2.438
		c-0.258,0.834-0.625,1.508-1.104,2.023c-0.36,0.391-0.85,0.695-1.463,0.914c-0.459,0.162-1.073,0.242-1.842,0.242h-3.916V15.273z
		 M28.762,17.211v7.586h1.555c0.58,0,1-0.035,1.259-0.109c0.338-0.094,0.616-0.252,0.84-0.477c0.224-0.223,0.403-0.592,0.545-1.105
		c0.142-0.512,0.211-1.211,0.211-2.098c0-0.885-0.069-1.564-0.211-2.039c-0.142-0.474-0.336-0.844-0.59-1.109
		c-0.254-0.265-0.574-0.445-0.963-0.539c-0.291-0.072-0.861-0.109-1.709-0.109L28.762,17.211L28.762,17.211z"/>
</g>
</svg>
