<?xml version="1.0" encoding="utf-8"?>
<!-- Generator: Adobe Illustrator 16.0.0, SVG Export Plug-In . SVG Version: 6.00 Build 0)  -->
<!DOCTYPE svg PUBLIC "-//W3C//DTD SVG 1.1//EN" "http://www.w3.org/Graphics/SVG/1.1/DTD/svg11.dtd">
<svg version="1.1" id="圖層_1" xmlns="http://www.w3.org/2000/svg" xmlns:xlink="http://www.w3.org/1999/xlink" x="0px" y="0px"
	 width="26px" height="26px" viewBox="284.64 407.945 26 26" enable-background="new 284.64 407.945 26 26" xml:space="preserve">
<g>
	<path fill="#A26700" d="M301.01,426.866c-0.373,0-0.676,0.319-0.676,0.675c0,0.373,0.303,0.676,0.676,0.676
		s0.674-0.303,0.674-0.676S301.401,426.866,301.01,426.866z"/>
	<path fill="#A26700" d="M295.378,426.866c-0.373,0-0.676,0.319-0.676,0.675c0,0.373,0.284,0.676,0.657,0.676
		c0.355,0,0.676-0.303,0.676-0.676S295.751,426.866,295.378,426.866z"/>
	<path fill="#A26700" d="M297.64,407.945c-7.18,0-13,5.82-13,13s5.82,13,13,13s13-5.82,13-13S304.82,407.945,297.64,407.945z
		 M295.378,429.282c-0.96,0-1.724-0.764-1.724-1.724c0-0.959,0.782-1.723,1.724-1.723c0.959,0,1.723,0.764,1.723,1.723
		C297.101,428.519,296.337,429.282,295.378,429.282z M301.028,429.282c-0.959,0-1.725-0.764-1.725-1.724
		c0-0.959,0.783-1.723,1.725-1.723c0.959,0,1.723,0.764,1.723,1.723C302.75,428.519,301.987,429.282,301.028,429.282z
		 M305.612,416.971l-1.475,5.596c-0.018,0.124-0.107,0.249-0.213,0.319c-0.09,0.054-0.197,0.089-0.303,0.071h-9.451l0.23,1.386
		h8.918c0.285,0,0.516,0.23,0.516,0.516c0,0.283-0.213,0.515-0.516,0.515h-9.344c-0.249,0-0.462-0.159-0.516-0.409l-0.373-2.344
		c-0.018-0.036-0.035-0.09-0.035-0.143l-1.138-6.84h-1.759c-0.284,0-0.515-0.231-0.515-0.515s0.213-0.515,0.515-0.515h2.186
		c0.249,0,0.462,0.178,0.515,0.426l0.214,1.279h12.062c0.07,0,0.266,0,0.408,0.213C305.647,416.669,305.664,416.829,305.612,416.971
		z"/>
</g>
</svg>
