<?xml version="1.0" encoding="utf-8"?>
<!-- Generator: Adobe Illustrator 16.0.0, SVG Export Plug-In . SVG Version: 6.00 Build 0)  -->
<!DOCTYPE svg PUBLIC "-//W3C//DTD SVG 1.1//EN" "http://www.w3.org/Graphics/SVG/1.1/DTD/svg11.dtd">
<svg version="1.1" id="圖層_1" xmlns="http://www.w3.org/2000/svg" xmlns:xlink="http://www.w3.org/1999/xlink" x="0px" y="0px"
	 width="140px" height="140px" viewBox="0 0 140 140" enable-background="new 0 0 140 140" xml:space="preserve">
<title>Delete 458</title>
<desc>Created with Sketch.</desc>
<text transform="matrix(1 0 0 1 8.9844 1395.1328)" font-family="'HelveticaNeue-Bold'" font-size="240.54">Created by iconfun</text>
<text transform="matrix(1 0 0 1 8.9844 1635.6641)" font-family="'HelveticaNeue-Bold'" font-size="240.54">from the Noun Project</text>
<g>
	<path fill="#A26700" d="M54.643,103.785c1.695,0,3.07-1.373,3.07-3.07v-43c0-1.697-1.375-3.072-3.07-3.072
		c-1.696,0-3.071,1.375-3.071,3.072v43C51.571,102.412,52.946,103.785,54.643,103.785z"/>
	<path fill="#A26700" d="M70,0C31.34,0,0,31.34,0,70s31.34,70,70,70s70-31.34,70-70S108.66,0,70,0z M100.715,106.55
		c0,3.562-2.889,6.45-6.449,6.45h-48.53c-3.562,0-6.45-2.888-6.45-6.45V45.429h61.43V106.55L100.715,106.55z M106.855,39.285H33.143
		v-6.143h21.5L57.713,27h24.572l3.07,6.143h21.5V39.285L106.855,39.285z"/>
	<path fill="#A26700" d="M70,103.785c1.695,0,3.07-1.373,3.07-3.07v-43c0-1.697-1.375-3.072-3.07-3.072
		c-1.697,0-3.072,1.375-3.072,3.072v43C66.928,102.412,68.305,103.785,70,103.785z"/>
	<path fill="#A26700" d="M85.355,103.785c1.697,0,3.072-1.373,3.072-3.07v-43c0-1.697-1.375-3.072-3.072-3.072
		c-1.693,0-3.07,1.375-3.07,3.072v43C82.285,102.412,83.662,103.785,85.355,103.785z"/>
</g>
</svg>
